<svg width="20" height="21" viewBox="0 0 20 21" fill="none" xmlns="http://www.w3.org/2000/svg">
<path d="M16.9132 8.6633L10.6632 14.9133C10.5762 15.0007 10.4727 15.07 10.3587 15.1174C10.2447 15.1647 10.1226 15.189 9.99918 15.189C9.8758 15.189 9.75362 15.1647 9.63967 15.1174C9.52571 15.07 9.42222 15.0007 9.33512 14.9133L3.08512 8.6633C2.909 8.48718 2.81006 8.24831 2.81006 7.99923C2.81006 7.75016 2.909 7.51129 3.08512 7.33517C3.26124 7.15905 3.50011 7.06011 3.74918 7.06011C3.99826 7.06011 4.23713 7.15905 4.41325 7.33517L9.99997 12.9219L15.5867 7.33439C15.7628 7.15827 16.0017 7.05933 16.2507 7.05933C16.4998 7.05933 16.7387 7.15827 16.9148 7.33439C17.0909 7.51051 17.1899 7.74938 17.1899 7.99845C17.1899 8.24752 17.0909 8.4864 16.9148 8.66252L16.9132 8.6633Z" fill="white"/>
</svg>
